<svg aria-roledescription="mindmap" role="graphics-document document" viewBox="5 5 1113.342041015625 636.0755615234375" style="max-width: 1113.34px; background-color: transparent;" xmlns:xlink="http://www.w3.org/1999/xlink" xmlns="http://www.w3.org/2000/svg" width="100%" id="my-svg"><style>#my-svg{font-family:"trebuchet ms",verdana,arial,sans-serif;font-size:16px;fill:#333;}@keyframes edge-animation-frame{from{stroke-dashoffset:0;}}@keyframes dash{to{stroke-dashoffset:0;}}#my-svg .edge-animation-slow{stroke-dasharray:9,5!important;stroke-dashoffset:900;animation:dash 50s linear infinite;stroke-linecap:round;}#my-svg .edge-animation-fast{stroke-dasharray:9,5!important;stroke-dashoffset:900;animation:dash 20s linear infinite;stroke-linecap:round;}#my-svg .error-icon{fill:#552222;}#my-svg .error-text{fill:#552222;stroke:#552222;}#my-svg .edge-thickness-normal{stroke-width:1px;}#my-svg .edge-thickness-thick{stroke-width:3.5px;}#my-svg .edge-pattern-solid{stroke-dasharray:0;}#my-svg .edge-thickness-invisible{stroke-width:0;fill:none;}#my-svg .edge-pattern-dashed{stroke-dasharray:3;}#my-svg .edge-pattern-dotted{stroke-dasharray:2;}#my-svg .marker{fill:#333333;stroke:#333333;}#my-svg .marker.cross{stroke:#333333;}#my-svg svg{font-family:"trebuchet ms",verdana,arial,sans-serif;font-size:16px;}#my-svg p{margin:0;}#my-svg .edge{stroke-width:3;}#my-svg .section--1 rect,#my-svg .section--1 path,#my-svg .section--1 circle,#my-svg .section--1 polygon,#my-svg .section--1 path{fill:hsl(240, 100%, 76.2745098039%);}#my-svg .section--1 text{fill:#ffffff;}#my-svg .node-icon--1{font-size:40px;color:#ffffff;}#my-svg .section-edge--1{stroke:hsl(240, 100%, 76.2745098039%);}#my-svg .edge-depth--1{stroke-width:17;}#my-svg .section--1 line{stroke:hsl(60, 100%, 86.2745098039%);stroke-width:3;}#my-svg .disabled,#my-svg .disabled circle,#my-svg .disabled text{fill:lightgray;}#my-svg .disabled text{fill:#efefef;}#my-svg .section-0 rect,#my-svg .section-0 path,#my-svg .section-0 circle,#my-svg .section-0 polygon,#my-svg .section-0 path{fill:hsl(60, 100%, 73.5294117647%);}#my-svg .section-0 text{fill:black;}#my-svg .node-icon-0{font-size:40px;color:black;}#my-svg .section-edge-0{stroke:hsl(60, 100%, 73.5294117647%);}#my-svg .edge-depth-0{stroke-width:14;}#my-svg .section-0 line{stroke:hsl(240, 100%, 83.5294117647%);stroke-width:3;}#my-svg .disabled,#my-svg .disabled circle,#my-svg .disabled text{fill:lightgray;}#my-svg .disabled text{fill:#efefef;}#my-svg .section-1 rect,#my-svg .section-1 path,#my-svg .section-1 circle,#my-svg .section-1 polygon,#my-svg .section-1 path{fill:hsl(80, 100%, 76.2745098039%);}#my-svg .section-1 text{fill:black;}#my-svg .node-icon-1{font-size:40px;color:black;}#my-svg .section-edge-1{stroke:hsl(80, 100%, 76.2745098039%);}#my-svg .edge-depth-1{stroke-width:11;}#my-svg .section-1 line{stroke:hsl(260, 100%, 86.2745098039%);stroke-width:3;}#my-svg .disabled,#my-svg .disabled circle,#my-svg .disabled text{fill:lightgray;}#my-svg .disabled text{fill:#efefef;}#my-svg .section-2 rect,#my-svg .section-2 path,#my-svg .section-2 circle,#my-svg .section-2 polygon,#my-svg .section-2 path{fill:hsl(270, 100%, 76.2745098039%);}#my-svg .section-2 text{fill:#ffffff;}#my-svg .node-icon-2{font-size:40px;color:#ffffff;}#my-svg .section-edge-2{stroke:hsl(270, 100%, 76.2745098039%);}#my-svg .edge-depth-2{stroke-width:8;}#my-svg .section-2 line{stroke:hsl(90, 100%, 86.2745098039%);stroke-width:3;}#my-svg .disabled,#my-svg .disabled circle,#my-svg .disabled text{fill:lightgray;}#my-svg .disabled text{fill:#efefef;}#my-svg .section-3 rect,#my-svg .section-3 path,#my-svg .section-3 circle,#my-svg .section-3 polygon,#my-svg .section-3 path{fill:hsl(300, 100%, 76.2745098039%);}#my-svg .section-3 text{fill:black;}#my-svg .node-icon-3{font-size:40px;color:black;}#my-svg .section-edge-3{stroke:hsl(300, 100%, 76.2745098039%);}#my-svg .edge-depth-3{stroke-width:5;}#my-svg .section-3 line{stroke:hsl(120, 100%, 86.2745098039%);stroke-width:3;}#my-svg .disabled,#my-svg .disabled circle,#my-svg .disabled text{fill:lightgray;}#my-svg .disabled text{fill:#efefef;}#my-svg .section-4 rect,#my-svg .section-4 path,#my-svg .section-4 circle,#my-svg .section-4 polygon,#my-svg .section-4 path{fill:hsl(330, 100%, 76.2745098039%);}#my-svg .section-4 text{fill:black;}#my-svg .node-icon-4{font-size:40px;color:black;}#my-svg .section-edge-4{stroke:hsl(330, 100%, 76.2745098039%);}#my-svg .edge-depth-4{stroke-width:2;}#my-svg .section-4 line{stroke:hsl(150, 100%, 86.2745098039%);stroke-width:3;}#my-svg .disabled,#my-svg .disabled circle,#my-svg .disabled text{fill:lightgray;}#my-svg .disabled text{fill:#efefef;}#my-svg .section-5 rect,#my-svg .section-5 path,#my-svg .section-5 circle,#my-svg .section-5 polygon,#my-svg .section-5 path{fill:hsl(0, 100%, 76.2745098039%);}#my-svg .section-5 text{fill:black;}#my-svg .node-icon-5{font-size:40px;color:black;}#my-svg .section-edge-5{stroke:hsl(0, 100%, 76.2745098039%);}#my-svg .edge-depth-5{stroke-width:-1;}#my-svg .section-5 line{stroke:hsl(180, 100%, 86.2745098039%);stroke-width:3;}#my-svg .disabled,#my-svg .disabled circle,#my-svg .disabled text{fill:lightgray;}#my-svg .disabled text{fill:#efefef;}#my-svg .section-6 rect,#my-svg .section-6 path,#my-svg .section-6 circle,#my-svg .section-6 polygon,#my-svg .section-6 path{fill:hsl(30, 100%, 76.2745098039%);}#my-svg .section-6 text{fill:black;}#my-svg .node-icon-6{font-size:40px;color:black;}#my-svg .section-edge-6{stroke:hsl(30, 100%, 76.2745098039%);}#my-svg .edge-depth-6{stroke-width:-4;}#my-svg .section-6 line{stroke:hsl(210, 100%, 86.2745098039%);stroke-width:3;}#my-svg .disabled,#my-svg .disabled circle,#my-svg .disabled text{fill:lightgray;}#my-svg .disabled text{fill:#efefef;}#my-svg .section-7 rect,#my-svg .section-7 path,#my-svg .section-7 circle,#my-svg .section-7 polygon,#my-svg .section-7 path{fill:hsl(90, 100%, 76.2745098039%);}#my-svg .section-7 text{fill:black;}#my-svg .node-icon-7{font-size:40px;color:black;}#my-svg .section-edge-7{stroke:hsl(90, 100%, 76.2745098039%);}#my-svg .edge-depth-7{stroke-width:-7;}#my-svg .section-7 line{stroke:hsl(270, 100%, 86.2745098039%);stroke-width:3;}#my-svg .disabled,#my-svg .disabled circle,#my-svg .disabled text{fill:lightgray;}#my-svg .disabled text{fill:#efefef;}#my-svg .section-8 rect,#my-svg .section-8 path,#my-svg .section-8 circle,#my-svg .section-8 polygon,#my-svg .section-8 path{fill:hsl(150, 100%, 76.2745098039%);}#my-svg .section-8 text{fill:black;}#my-svg .node-icon-8{font-size:40px;color:black;}#my-svg .section-edge-8{stroke:hsl(150, 100%, 76.2745098039%);}#my-svg .edge-depth-8{stroke-width:-10;}#my-svg .section-8 line{stroke:hsl(330, 100%, 86.2745098039%);stroke-width:3;}#my-svg .disabled,#my-svg .disabled circle,#my-svg .disabled text{fill:lightgray;}#my-svg .disabled text{fill:#efefef;}#my-svg .section-9 rect,#my-svg .section-9 path,#my-svg .section-9 circle,#my-svg .section-9 polygon,#my-svg .section-9 path{fill:hsl(180, 100%, 76.2745098039%);}#my-svg .section-9 text{fill:black;}#my-svg .node-icon-9{font-size:40px;color:black;}#my-svg .section-edge-9{stroke:hsl(180, 100%, 76.2745098039%);}#my-svg .edge-depth-9{stroke-width:-13;}#my-svg .section-9 line{stroke:hsl(0, 100%, 86.2745098039%);stroke-width:3;}#my-svg .disabled,#my-svg .disabled circle,#my-svg .disabled text{fill:lightgray;}#my-svg .disabled text{fill:#efefef;}#my-svg .section-10 rect,#my-svg .section-10 path,#my-svg .section-10 circle,#my-svg .section-10 polygon,#my-svg .section-10 path{fill:hsl(210, 100%, 76.2745098039%);}#my-svg .section-10 text{fill:black;}#my-svg .node-icon-10{font-size:40px;color:black;}#my-svg .section-edge-10{stroke:hsl(210, 100%, 76.2745098039%);}#my-svg .edge-depth-10{stroke-width:-16;}#my-svg .section-10 line{stroke:hsl(30, 100%, 86.2745098039%);stroke-width:3;}#my-svg .disabled,#my-svg .disabled circle,#my-svg .disabled text{fill:lightgray;}#my-svg .disabled text{fill:#efefef;}#my-svg .section-root rect,#my-svg .section-root path,#my-svg .section-root circle,#my-svg .section-root polygon{fill:hsl(240, 100%, 46.2745098039%);}#my-svg .section-root text{fill:#ffffff;}#my-svg .icon-container{height:100%;display:flex;justify-content:center;align-items:center;}#my-svg .edge{fill:none;}#my-svg .mindmap-node-label{dy:1em;alignment-baseline:middle;text-anchor:middle;dominant-baseline:middle;text-align:center;}#my-svg :root{--mermaid-font-family:"trebuchet ms",verdana,arial,sans-serif;}</style><g/><g class="mindmap-edges"><path class="edge section-edge-0 edge-depth-2" d="M 835.3475862276625,507.2017204279065 L 865.8838699229144,483.565685202266 L896.4201536181663,459.92964997662557"/><path class="edge section-edge-0 edge-depth-2" d="M 838.4821017770523,516.0501246151841 L 907.2006315887636,514.5242460707045 L975.9191614004746,512.9983675262249"/><path class="edge section-edge-0 edge-depth-2" d="M 836.746780093272,523.3935605697267 L 886.648225934608,549.7740674973697 L936.549671775944,576.1545744250128"/><path class="edge section-edge-0 edge-depth-2" d="M 824.0675252821122,531.3718294986838 L 825.3446989416449,564.279349927831 L826.6218726011775,597.1868703569783"/><path class="edge section-edge-0 edge-depth-1" d="M 750.4654095828079,436.592684212022 L 781.9122241625473,470.95507112233264 L813.3590387422868,505.3174580326433"/><path class="edge section-edge-0 edge-depth-2" d="M 918.4078263800794,374.5633306749678 L 978.5634762838802,359.6560029909449 L1038.719126187681,344.7486753069221"/><path class="edge section-edge-0 edge-depth-2" d="M 918.2398959762331,382.3998389555042 L 979.1497926265249,400.29594271789193 L1040.0596892768167,418.19204648027966"/><path class="edge section-edge-0 edge-depth-2" d="M 909.611722211907,364.32284106359134 L 922.4375636976232,333.5048788623466 L935.2634051833394,302.6869166611019"/><path class="edge section-edge-0 edge-depth-2" d="M 889.5690645029806,373.57730610481576 L 833.713376324608,355.6066904850844 L777.8576881462354,337.63607486535307"/><path class="edge section-edge-0 edge-depth-1" d="M 754.7465507612279,421.35421191697947 L 822.0934380949625,401.8492056369231 L889.4403254286971,382.34419935686685"/><path class="edge section-edge-0 edge-depth-2" d="M 644.6442315820216,509.7065837056611 L 572.3724731781083,509.4419784759003 L500.10071477419507,509.17737324613955"/><path class="edge section-edge-0 edge-depth-2" d="M 649.5341391822104,498.68052454405426 L 626.1881302217697,473.0923138206059 L602.842121261329,447.50410309715755"/><path class="edge section-edge-0 edge-depth-2" d="M 646.6006359434809,517.1687442370634 L 600.4802676986429,543.3599399604572 L554.3598994538049,569.5511356838509"/><path class="edge section-edge-0 edge-depth-2" d="M 663.456132999253,524.269039530197 L 671.5051474928651,554.9015995829577 L679.5541619864773,585.5341596357183"/><path class="edge section-edge-0 edge-depth-1" d="M 729.962093071684,436.3587901847706 L 699.9913905382347,467.6442652160787 L670.0206880047854,498.92974024738675"/><path class="edge section-edge-0 edge-depth-0" d="M 606.4036032114074,352.2605816613184 L 666.7912715925133,385.29442894551914 L727.1789399736193,418.3282762297199"/><path class="edge section-edge-1 edge-depth-2" d="M 250.77854806159328,222.56874325166234 L 222.67434393181554,193.93865250253856 L194.5701398020378,165.30856175341484"/><path class="edge section-edge-1 edge-depth-2" d="M 252.5388909919323,245.45849473254418 L 230.0037178797901,276.85008874311046 L207.46854476764787,308.24168275367674"/><path class="edge section-edge-1 edge-depth-2" d="M 246.65494856140808,236.5779148064155 L 170.63415804441297,253.74827350295914 L94.61336752741786,270.9186321995028"/><path class="edge section-edge-1 edge-depth-2" d="M 246.51601722959862,230.65856818791053 L 168.94787885453823,216.9275482514995 L91.37974047947785,203.19652831508853"/><path class="edge section-edge-1 edge-depth-1" d="M 456.7182227339672,242.16794948758672 L 366.4945467909413,238.06157191525568 L276.2708708479155,233.95519434292459"/><path class="edge section-edge-1 edge-depth-2" d="M 444.3075343349878,339.24632973955494 L 378.4569775612724,359.3553441108553 L312.60642078755706,379.46435848215566"/><path class="edge section-edge-1 edge-depth-2" d="M 472.7320727442252,329.6890665040187 L 532.9715627544142,307.54030347676206 L593.2110527646032,285.39154044950544"/><path class="edge section-edge-1 edge-depth-2" d="M 444.5240060328122,329.82993304554356 L 393.14999811484927,311.52117276990117 L341.7759901968863,293.2124124942588"/><path class="edge section-edge-1 edge-depth-2" d="M 456.8384801255867,349.755221235023 L 453.1566917100739,379.9586839001917 L449.4749032945611,410.16214656536044"/><path class="edge section-edge-1 edge-depth-1" d="M 469.59656009252456,257.70134462841145 L 465.1781242537757,288.8576918430167 L460.75968841502686,320.0140390576219"/><path class="edge section-edge-1 edge-depth-2" d="M 476.464058958082,125.68213002651956 L 536.8363625361671,99.8906260965409 L597.2086661142523,74.09912216656224"/><path class="edge section-edge-1 edge-depth-2" d="M 449.1868866232794,125.00208687878722 L 395.8652988659014,99.00829743323945 L342.54371110852355,73.01450798769167"/><path class="edge section-edge-1 edge-depth-2" d="M 447.71481262933,132.7325833661772 L 386.09140065439226,137.5023344156925 L324.4679886794545,142.2720854652078"/><path class="edge section-edge-1 edge-depth-2" d="M 464.0349935704007,116.63725020892869 L 467.1325227008985,82.73751079033039 L470.23005183139634,48.83777137173209"/><path class="edge section-edge-1 edge-depth-1" d="M 470.48909277983626,227.89911928767134 L 467.1863959142362,187.21248231453117 L463.8836990486361,146.525845341391"/><path class="edge section-edge-1 edge-depth-2" d="M 638.789775766891,200.82426989647428 L 614.0490729599604,177.4475162587577 L589.3083701530298,154.07076262104113"/><path class="edge section-edge-1 edge-depth-2" d="M 664.0924584239682,215.32675161876745 L 726.551958235696,233.54728404097924 L789.0114580474238,251.76781646319102"/><path class="edge section-edge-1 edge-depth-2" d="M 658.3163818701191,198.85288025178014 L 678.8218904784361,169.6696578205554 L699.3273990867531,140.48643538933064"/><path class="edge section-edge-1 edge-depth-2" d="M 664.4375910432244,208.37164844324712 L 740.7493808430573,194.11622363045095 L817.0611706428903,179.86079881765477"/><path class="edge section-edge-1 edge-depth-1" d="M 486.46998592286843,240.21791197035387 L 560.6976831375731,226.9880096858295 L634.9253803522778,213.75810740130512"/><path class="edge section-edge-1 edge-depth-0" d="M 581.7637783248571,335.407454245583 L 532.473302014283,293.9558863238205 L483.1828257037089,252.50431840205803"/></g><g class="mindmap-nodes"><g transform="translate(525.1579556557597, 326.16182959923947)" class="mindmap-node section--1 section-root"><g transform="translate(68.0859375, 18.9)"><circle r="68.0859375" class="node-bkg node-circle" id="node-0"/></g><g transform="translate(68.0859375, 5)" text-anchor="middle" dominant-baseline="middle" alignment-baseline="middle" dy="1em"><g><rect style="stroke: none" class="background"/><text style="" y="-10.1"><tspan dy="1.1em" y="-0.1em" x="0" class="text-outer-tspan"><tspan font-weight="normal" class="text-inner-tspan" font-style="normal">Prompt</tspan><tspan font-weight="normal" class="text-inner-tspan" font-style="normal"> Alchemy</tspan></tspan></text></g></g></g><g transform="translate(688.698025029267, 406.62702829179887)" class="mindmap-node section-0"><g><path d="M0 32.8 v-27.799999999999997 q0,-5 5,-5 h93.28125 q5,0 5,5 v32.8 H0 Z" class="node-bkg node-no-border" id="node-1"/><line y2="37.8" x2="103.28125" y1="37.8" x1="0" class="node-line-0"/></g><g transform="translate(51.640625, 5)" text-anchor="middle" dominant-baseline="middle" alignment-baseline="middle" dy="1em"><g><rect style="stroke: none" class="background"/><text style="" y="-10.1"><tspan dy="1.1em" y="-0.1em" x="0" class="text-outer-tspan"><tspan font-weight="normal" class="text-inner-tspan" font-style="normal">On-Demand</tspan></tspan></text></g></g></g><g transform="translate(417.7886483728062, 223.94994304840156)" class="mindmap-node section-1"><g><path d="M0 32.8 v-27.799999999999997 q0,-5 5,-5 h97.828125 q5,0 5,5 v32.8 H0 Z" class="node-bkg node-no-border" id="node-17"/><line y2="37.8" x2="107.828125" y1="37.8" x1="0" class="node-line-1"/></g><g transform="translate(53.9140625, 5)" text-anchor="middle" dominant-baseline="middle" alignment-baseline="middle" dy="1em"><g><rect style="stroke: none" class="background"/><text style="" y="-10.1"><tspan dy="1.1em" y="-0.1em" x="0" class="text-outer-tspan"><tspan font-weight="normal" class="text-inner-tspan" font-style="normal">Server</tspan><tspan font-weight="normal" class="text-inner-tspan" font-style="normal"> Mode</tspan></tspan></text></g></g></g><g transform="translate(782.3217357958276, 497.48311395286646)" class="mindmap-node section-0"><g><path d="M0 32.8 v-27.799999999999997 q0,-5 5,-5 h72.328125 q5,0 5,5 v32.8 H0 Z" class="node-bkg node-no-border" id="node-2"/><line y2="37.8" x2="82.328125" y1="37.8" x1="0" class="node-line-0"/></g><g transform="translate(41.1640625, 5)" text-anchor="middle" dominant-baseline="middle" alignment-baseline="middle" dy="1em"><g><rect style="stroke: none" class="background"/><text style="" y="-10.1"><tspan dy="1.1em" y="-0.1em" x="0" class="text-outer-tspan"><tspan font-weight="normal" class="text-inner-tspan" font-style="normal">CLI</tspan><tspan font-weight="normal" class="text-inner-tspan" font-style="normal"> Tools</tspan></tspan></text></g></g></g><g transform="translate(866.418538660658, 359.2713829820475)" class="mindmap-node section-0"><g><path d="M0 32.8 v-27.799999999999997 q0,-5 5,-5 h64.859375 q5,0 5,5 v32.8 H0 Z" class="node-bkg node-no-border" id="node-7"/><line y2="37.8" x2="74.859375" y1="37.8" x1="0" class="node-line-0"/></g><g transform="translate(37.4296875, 5)" text-anchor="middle" dominant-baseline="middle" alignment-baseline="middle" dy="1em"><g><rect style="stroke: none" class="background"/><text style="" y="-10.1"><tspan dy="1.1em" y="-0.1em" x="0" class="text-outer-tspan"><tspan font-weight="normal" class="text-inner-tspan" font-style="normal">File</tspan><tspan font-weight="normal" class="text-inner-tspan" font-style="normal"> I/O</tspan></tspan></text></g></g></g><g transform="translate(599.7925685472023, 490.86150214035854)" class="mindmap-node section-0"><g><path d="M0 32.8 v-27.799999999999997 q0,-5 5,-5 h109.703125 q5,0 5,5 v32.8 H0 Z" class="node-bkg node-no-border" id="node-12"/><line y2="37.8" x2="119.703125" y1="37.8" x1="0" class="node-line-0"/></g><g transform="translate(59.8515625, 5)" text-anchor="middle" dominant-baseline="middle" alignment-baseline="middle" dy="1em"><g><rect style="stroke: none" class="background"/><text style="" y="-10.1"><tspan dy="1.1em" y="-0.1em" x="0" class="text-outer-tspan"><tspan font-weight="normal" class="text-inner-tspan" font-style="normal">Process</tspan><tspan font-weight="normal" class="text-inner-tspan" font-style="normal"> Model</tspan></tspan></text></g></g></g><g transform="translate(204.52857020907646, 214.37320078210973)" class="mindmap-node section-1"><g><path d="M0 32.8 v-27.799999999999997 q0,-5 5,-5 h103.515625 q5,0 5,5 v32.8 H0 Z" class="node-bkg node-no-border" id="node-18"/><line y2="37.8" x2="113.515625" y1="37.8" x1="0" class="node-line-1"/></g><g transform="translate(56.7578125, 5)" text-anchor="middle" dominant-baseline="middle" alignment-baseline="middle" dy="1em"><g><rect style="stroke: none" class="background"/><text style="" y="-10.1"><tspan dy="1.1em" y="-0.1em" x="0" class="text-outer-tspan"><tspan font-weight="normal" class="text-inner-tspan" font-style="normal">MCP</tspan><tspan font-weight="normal" class="text-inner-tspan" font-style="normal"> Protocol</tspan></tspan></text></g></g></g><g transform="translate(417.9816626347452, 315.9654406376318)" class="mindmap-node section-1"><g><path d="M0 32.8 v-27.799999999999997 q0,-5 5,-5 h71.34375 q5,0 5,5 v32.8 H0 Z" class="node-bkg node-no-border" id="node-23"/><line y2="37.8" x2="81.34375" y1="37.8" x1="0" class="node-line-1"/></g><g transform="translate(40.671875, 5)" text-anchor="middle" dominant-baseline="middle" alignment-baseline="middle" dy="1em"><g><rect style="stroke: none" class="background"/><text style="" y="-10.1"><tspan dy="1.1em" y="-0.1em" x="0" class="text-outer-tspan"><tspan font-weight="normal" class="text-inner-tspan" font-style="normal">REST</tspan><tspan font-weight="normal" class="text-inner-tspan" font-style="normal"> API</tspan></tspan></text></g></g></g><g transform="translate(413.72476845566615, 112.67502158066077)" class="mindmap-node section-1"><g><path d="M0 32.8 v-27.799999999999997 q0,-5 5,-5 h87.890625 q5,0 5,5 v32.8 H0 Z" class="node-bkg node-no-border" id="node-28"/><line y2="37.8" x2="97.890625" y1="37.8" x1="0" class="node-line-1"/></g><g transform="translate(48.9453125, 5)" text-anchor="middle" dominant-baseline="middle" alignment-baseline="middle" dy="1em"><g><rect style="stroke: none" class="background"/><text style="" y="-10.1"><tspan dy="1.1em" y="-0.1em" x="0" class="text-outer-tspan"><tspan font-weight="normal" class="text-inner-tspan" font-style="normal">WebSocket</tspan></tspan></text></g></g></g><g transform="translate(596.87234290234, 192.22607632325742)" class="mindmap-node section-1"><g><path d="M0 32.8 v-27.799999999999997 q0,-5 5,-5 h95.640625 q5,0 5,5 v32.8 H0 Z" class="node-bkg node-no-border" id="node-33"/><line y2="37.8" x2="105.640625" y1="37.8" x1="0" class="node-line-1"/></g><g transform="translate(52.8203125, 5)" text-anchor="middle" dominant-baseline="middle" alignment-baseline="middle" dy="1em"><g><rect style="stroke: none" class="background"/><text style="" y="-10.1"><tspan dy="1.1em" y="-0.1em" x="0" class="text-outer-tspan"><tspan font-weight="normal" class="text-inner-tspan" font-style="normal">Integrations</tspan></tspan></text></g></g></g><g transform="translate(855.4616290500012, 431.84825645166563)" class="mindmap-node section-0"><g><path d="M0 32.8 v-27.799999999999997 q0,-5 5,-5 h95.640625 q5,0 5,5 v32.8 H0 Z" class="node-bkg node-no-border" id="node-3"/><line y2="37.8" x2="105.640625" y1="37.8" x1="0" class="node-line-0"/></g><g transform="translate(52.8203125, 5)" text-anchor="middle" dominant-baseline="middle" alignment-baseline="middle" dy="1em"><g><rect style="stroke: none" class="background"/><text style="" y="-10.1"><tspan dy="1.1em" y="-0.1em" x="0" class="text-outer-tspan"><tspan font-weight="normal" class="text-inner-tspan" font-style="normal">Bash</tspan><tspan font-weight="normal" class="text-inner-tspan" font-style="normal"> Scripts</tspan></tspan></text></g></g></g><g transform="translate(925.8060898816993, 493.7653781885426)" class="mindmap-node section-0"><g><path d="M0 32.8 v-27.799999999999997 q0,-5 5,-5 h120.21875 q5,0 5,5 v32.8 H0 Z" class="node-bkg node-no-border" id="node-4"/><line y2="37.8" x2="130.21875" y1="37.8" x1="0" class="node-line-0"/></g><g transform="translate(65.109375, 5)" text-anchor="middle" dominant-baseline="middle" alignment-baseline="middle" dy="1em"><g><rect style="stroke: none" class="background"/><text style="" y="-10.1"><tspan dy="1.1em" y="-0.1em" x="0" class="text-outer-tspan"><tspan font-weight="normal" class="text-inner-tspan" font-style="normal">CI/CD</tspan><tspan font-weight="normal" class="text-inner-tspan" font-style="normal"> Pipelines</tspan></tspan></text></g></g></g><g transform="translate(905.0372160733884, 564.2650210418731)" class="mindmap-node section-0"><g><path d="M0 32.8 v-27.799999999999997 q0,-5 5,-5 h79.546875 q5,0 5,5 v32.8 H0 Z" class="node-bkg node-no-border" id="node-5"/><line y2="37.8" x2="89.546875" y1="37.8" x1="0" class="node-line-0"/></g><g transform="translate(44.7734375, 5)" text-anchor="middle" dominant-baseline="middle" alignment-baseline="middle" dy="1em"><g><rect style="stroke: none" class="background"/><text style="" y="-10.1"><tspan dy="1.1em" y="-0.1em" x="0" class="text-outer-tspan"><tspan font-weight="normal" class="text-inner-tspan" font-style="normal">Cron</tspan><tspan font-weight="normal" class="text-inner-tspan" font-style="normal"> Jobs</tspan></tspan></text></g></g></g><g transform="translate(778.2895370874621, 593.2755859027957)" class="mindmap-node section-0"><g><path d="M0 32.8 v-27.799999999999997 q0,-5 5,-5 h87.828125 q5,0 5,5 v32.8 H0 Z" class="node-bkg node-no-border" id="node-6"/><line y2="37.8" x2="97.828125" y1="37.8" x1="0" class="node-line-0"/></g><g transform="translate(48.9140625, 5)" text-anchor="middle" dominant-baseline="middle" alignment-baseline="middle" dy="1em"><g><rect style="stroke: none" class="background"/><text style="" y="-10.1"><tspan dy="1.1em" y="-0.1em" x="0" class="text-outer-tspan"><tspan font-weight="normal" class="text-inner-tspan" font-style="normal">Make</tspan><tspan font-weight="normal" class="text-inner-tspan" font-style="normal"> Tasks</tspan></tspan></text></g></g></g><g transform="translate(1000.3021639071023, 322.24062299984246)" class="mindmap-node section-0"><g><path d="M0 32.8 v-27.799999999999997 q0,-5 5,-5 h95.953125 q5,0 5,5 v32.8 H0 Z" class="node-bkg node-no-border" id="node-8"/><line y2="37.8" x2="105.953125" y1="37.8" x1="0" class="node-line-0"/></g><g transform="translate(52.9765625, 5)" text-anchor="middle" dominant-baseline="middle" alignment-baseline="middle" dy="1em"><g><rect style="stroke: none" class="background"/><text style="" y="-10.1"><tspan dy="1.1em" y="-0.1em" x="0" class="text-outer-tspan"><tspan font-weight="normal" class="text-inner-tspan" font-style="normal">YAML</tspan><tspan font-weight="normal" class="text-inner-tspan" font-style="normal"> Config</tspan></tspan></text></g></g></g><g transform="translate(1000.5607340923918, 403.5205024537364)" class="mindmap-node section-0"><g><path d="M0 32.8 v-27.799999999999997 q0,-5 5,-5 h97.78125 q5,0 5,5 v32.8 H0 Z" class="node-bkg node-no-border" id="node-9"/><line y2="37.8" x2="107.78125" y1="37.8" x1="0" class="node-line-0"/></g><g transform="translate(53.890625, 5)" text-anchor="middle" dominant-baseline="middle" alignment-baseline="middle" dy="1em"><g><rect style="stroke: none" class="background"/><text style="" y="-10.1"><tspan dy="1.1em" y="-0.1em" x="0" class="text-outer-tspan"><tspan font-weight="normal" class="text-inner-tspan" font-style="normal">JSON</tspan><tspan font-weight="normal" class="text-inner-tspan" font-style="normal"> Export</tspan></tspan></text></g></g></g><g transform="translate(895.0425262345884, 269.9383747426458)" class="mindmap-node section-0"><g><path d="M0 32.8 v-27.799999999999997 q0,-5 5,-5 h81.96875 q5,0 5,5 v32.8 H0 Z" class="node-bkg node-no-border" id="node-10"/><line y2="37.8" x2="91.96875" y1="37.8" x1="0" class="node-line-0"/></g><g transform="translate(45.984375, 5)" text-anchor="middle" dominant-baseline="middle" alignment-baseline="middle" dy="1em"><g><rect style="stroke: none" class="background"/><text style="" y="-10.1"><tspan dy="1.1em" y="-0.1em" x="0" class="text-outer-tspan"><tspan font-weight="normal" class="text-inner-tspan" font-style="normal">CSV</tspan><tspan font-weight="normal" class="text-inner-tspan" font-style="normal"> Batch</tspan></tspan></text></g></g></g><g transform="translate(698.664463988558, 314.1419979881214)" class="mindmap-node section-0"><g><path d="M0 32.8 v-27.799999999999997 q0,-5 5,-5 h119.828125 q5,0 5,5 v32.8 H0 Z" class="node-bkg node-no-border" id="node-11"/><line y2="37.8" x2="129.828125" y1="37.8" x1="0" class="node-line-0"/></g><g transform="translate(64.9140625, 5)" text-anchor="middle" dominant-baseline="middle" alignment-baseline="middle" dy="1em"><g><rect style="stroke: none" class="background"/><text style="" y="-10.1"><tspan dy="1.1em" y="-0.1em" x="0" class="text-outer-tspan"><tspan font-weight="normal" class="text-inner-tspan" font-style="normal">Markdown</tspan><tspan font-weight="normal" class="text-inner-tspan" font-style="normal"> Docs</tspan></tspan></text></g></g></g><g transform="translate(428.0461278090143, 490.22245481144216)" class="mindmap-node section-0"><g><path d="M0 32.8 v-27.799999999999997 q0,-5 5,-5 h104.109375 q5,0 5,5 v32.8 H0 Z" class="node-bkg node-no-border" id="node-13"/><line y2="37.8" x2="114.109375" y1="37.8" x1="0" class="node-line-0"/></g><g transform="translate(57.0546875, 5)" text-anchor="middle" dominant-baseline="middle" alignment-baseline="middle" dy="1em"><g><rect style="stroke: none" class="background"/><text style="" y="-10.1"><tspan dy="1.1em" y="-0.1em" x="0" class="text-outer-tspan"><tspan font-weight="normal" class="text-inner-tspan" font-style="normal">Spawn</tspan><tspan font-weight="normal" class="text-inner-tspan" font-style="normal"> &amp;</tspan><tspan font-weight="normal" class="text-inner-tspan" font-style="normal"> Exit</tspan></tspan></text></g></g></g><g transform="translate(537.4274418963371, 417.5231255008533)" class="mindmap-node section-0"><g><path d="M0 32.8 v-27.799999999999997 q0,-5 5,-5 h100.609375 q5,0 5,5 v32.8 H0 Z" class="node-bkg node-no-border" id="node-14"/><line y2="37.8" x2="110.609375" y1="37.8" x1="0" class="node-line-0"/></g><g transform="translate(55.3046875, 5)" text-anchor="middle" dominant-baseline="middle" alignment-baseline="middle" dy="1em"><g><rect style="stroke: none" class="background"/><text style="" y="-10.1"><tspan dy="1.1em" y="-0.1em" x="0" class="text-outer-tspan"><tspan font-weight="normal" class="text-inner-tspan" font-style="normal">Pipe</tspan><tspan font-weight="normal" class="text-inner-tspan" font-style="normal"> Support</tspan></tspan></text></g></g></g><g transform="translate(494.01952935008353, 558.0583777805558)" class="mindmap-node section-0"><g><path d="M0 32.8 v-27.799999999999997 q0,-5 5,-5 h84.59375 q5,0 5,5 v32.8 H0 Z" class="node-bkg node-no-border" id="node-15"/><line y2="37.8" x2="94.59375" y1="37.8" x1="0" class="node-line-0"/></g><g transform="translate(47.296875, 5)" text-anchor="middle" dominant-baseline="middle" alignment-baseline="middle" dy="1em"><g><rect style="stroke: none" class="background"/><text style="" y="-10.1"><tspan dy="1.1em" y="-0.1em" x="0" class="text-outer-tspan"><tspan font-weight="normal" class="text-inner-tspan" font-style="normal">Exit</tspan><tspan font-weight="normal" class="text-inner-tspan" font-style="normal"> Codes</tspan></tspan></text></g></g></g><g transform="translate(618.584913938528, 581.1416970255568)" class="mindmap-node section-0"><g><path d="M0 32.8 v-27.799999999999997 q0,-5 5,-5 h119.5625 q5,0 5,5 v32.8 H0 Z" class="node-bkg node-no-border" id="node-16"/><line y2="37.8" x2="129.5625" y1="37.8" x1="0" class="node-line-0"/></g><g transform="translate(64.78125, 5)" text-anchor="middle" dominant-baseline="middle" alignment-baseline="middle" dy="1em"><g><rect style="stroke: none" class="background"/><text style="" y="-10.1"><tspan dy="1.1em" y="-0.1em" x="0" class="text-outer-tspan"><tspan font-weight="normal" class="text-inner-tspan" font-style="normal">Signal</tspan><tspan font-weight="normal" class="text-inner-tspan" font-style="normal"> Handling</tspan></tspan></text></g></g></g><g transform="translate(145.57011765455462, 135.70410422296743)" class="mindmap-node section-1"><g><path d="M0 32.8 v-27.799999999999997 q0,-5 5,-5 h66.984375 q5,0 5,5 v32.8 H0 Z" class="node-bkg node-no-border" id="node-19"/><line y2="37.8" x2="76.984375" y1="37.8" x1="0" class="node-line-1"/></g><g transform="translate(38.4921875, 5)" text-anchor="middle" dominant-baseline="middle" alignment-baseline="middle" dy="1em"><g><rect style="stroke: none" class="background"/><text style="" y="-10.1"><tspan dy="1.1em" y="-0.1em" x="0" class="text-outer-tspan"><tspan font-weight="normal" class="text-inner-tspan" font-style="normal">17</tspan><tspan font-weight="normal" class="text-inner-tspan" font-style="normal"> Tools</tspan></tspan></text></g></g></g><g transform="translate(153.7210530505037, 301.52697670411123)" class="mindmap-node section-1"><g><path d="M0 32.8 v-27.799999999999997 q0,-5 5,-5 h80 q5,0 5,5 v32.8 H0 Z" class="node-bkg node-no-border" id="node-20"/><line y2="37.8" x2="90" y1="37.8" x1="0" class="node-line-1"/></g><g transform="translate(45, 5)" text-anchor="middle" dominant-baseline="middle" alignment-baseline="middle" dy="1em"><g><rect style="stroke: none" class="background"/><text style="" y="-10.1"><tspan dy="1.1em" y="-0.1em" x="0" class="text-outer-tspan"><tspan font-weight="normal" class="text-inner-tspan" font-style="normal">JSON-RPC</tspan></tspan></text></g></g></g><g transform="translate(19.630370879749478, 255.32334622380856)" class="mindmap-node section-1"><g><path d="M0 32.8 v-27.799999999999997 q0,-5 5,-5 h110.703125 q5,0 5,5 v32.8 H0 Z" class="node-bkg node-no-border" id="node-21"/><line y2="37.8" x2="120.703125" y1="37.8" x1="0" class="node-line-1"/></g><g transform="translate(60.3515625, 5)" text-anchor="middle" dominant-baseline="middle" alignment-baseline="middle" dy="1em"><g><rect style="stroke: none" class="background"/><text style="" y="-10.1"><tspan dy="1.1em" y="-0.1em" x="0" class="text-outer-tspan"><tspan font-weight="normal" class="text-inner-tspan" font-style="normal">Async</tspan><tspan font-weight="normal" class="text-inner-tspan" font-style="normal"> Support</tspan></tspan></text></g></g></g><g transform="translate(15, 181.68189572088932)" class="mindmap-node section-1"><g><path d="M0 32.8 v-27.799999999999997 q0,-5 5,-5 h113.21875 q5,0 5,5 v32.8 H0 Z" class="node-bkg node-no-border" id="node-22"/><line y2="37.8" x2="123.21875" y1="37.8" x1="0" class="node-line-1"/></g><g transform="translate(61.609375, 5)" text-anchor="middle" dominant-baseline="middle" alignment-baseline="middle" dy="1em"><g><rect style="stroke: none" class="background"/><text style="" y="-10.1"><tspan dy="1.1em" y="-0.1em" x="0" class="text-outer-tspan"><tspan font-weight="normal" class="text-inner-tspan" font-style="normal">Error</tspan><tspan font-weight="normal" class="text-inner-tspan" font-style="normal"> Handling</tspan></tspan></text></g></g></g><g transform="translate(232.08072998779966, 364.94524758407886)" class="mindmap-node section-1"><g><path d="M0 32.8 v-27.799999999999997 q0,-5 5,-5 h122.359375 q5,0 5,5 v32.8 H0 Z" class="node-bkg node-no-border" id="node-24"/><line y2="37.8" x2="132.359375" y1="37.8" x1="0" class="node-line-1"/></g><g transform="translate(66.1796875, 5)" text-anchor="middle" dominant-baseline="middle" alignment-baseline="middle" dy="1em"><g><rect style="stroke: none" class="background"/><text style="" y="-10.1"><tspan dy="1.1em" y="-0.1em" x="0" class="text-outer-tspan"><tspan font-weight="normal" class="text-inner-tspan" font-style="normal">HTTP</tspan><tspan font-weight="normal" class="text-inner-tspan" font-style="normal"> Endpoints</tspan></tspan></text></g></g></g><g transform="translate(550.5395878740833, 261.3151663158924)" class="mindmap-node section-1"><g><path d="M0 32.8 v-27.799999999999997 q0,-5 5,-5 h103.5 q5,0 5,5 v32.8 H0 Z" class="node-bkg node-no-border" id="node-25"/><line y2="37.8" x2="113.5" y1="37.8" x1="0" class="node-line-1"/></g><g transform="translate(56.75, 5)" text-anchor="middle" dominant-baseline="middle" alignment-baseline="middle" dy="1em"><g><rect style="stroke: none" class="background"/><text style="" y="-10.1"><tspan dy="1.1em" y="-0.1em" x="0" class="text-outer-tspan"><tspan font-weight="normal" class="text-inner-tspan" font-style="normal">Auth</tspan><tspan font-weight="normal" class="text-inner-tspan" font-style="normal"> Support</tspan></tspan></text></g></g></g><g transform="translate(269.74020859495334, 269.2769049021706)" class="mindmap-node section-1"><g><path d="M0 32.8 v-27.799999999999997 q0,-5 5,-5 h105.8125 q5,0 5,5 v32.8 H0 Z" class="node-bkg node-no-border" id="node-26"/><line y2="37.8" x2="115.8125" y1="37.8" x1="0" class="node-line-1"/></g><g transform="translate(57.90625, 5)" text-anchor="middle" dominant-baseline="middle" alignment-baseline="middle" dy="1em"><g><rect style="stroke: none" class="background"/><text style="" y="-10.1"><tspan dy="1.1em" y="-0.1em" x="0" class="text-outer-tspan"><tspan font-weight="normal" class="text-inner-tspan" font-style="normal">Rate</tspan><tspan font-weight="normal" class="text-inner-tspan" font-style="normal"> Limiting</tspan></tspan></text></g></g></g><g transform="translate(393.86297078540264, 406.1519271627517)" class="mindmap-node section-1"><g><path d="M0 32.8 v-27.799999999999997 q0,-5 5,-5 h97.59375 q5,0 5,5 v32.8 H0 Z" class="node-bkg node-no-border" id="node-27"/><line y2="37.8" x2="107.59375" y1="37.8" x1="0" class="node-line-1"/></g><g transform="translate(53.796875, 5)" text-anchor="middle" dominant-baseline="middle" alignment-baseline="middle" dy="1em"><g><rect style="stroke: none" class="background"/><text style="" y="-10.1"><tspan dy="1.1em" y="-0.1em" x="0" class="text-outer-tspan"><tspan font-weight="normal" class="text-inner-tspan" font-style="normal">CORS</tspan><tspan font-weight="normal" class="text-inner-tspan" font-style="normal"> Config</tspan></tspan></text></g></g></g><g transform="translate(554.8932691166681, 49.306230612421025)" class="mindmap-node section-1"><g><path d="M0 32.8 v-27.799999999999997 q0,-5 5,-5 h102.21875 q5,0 5,5 v32.8 H0 Z" class="node-bkg node-no-border" id="node-29"/><line y2="37.8" x2="112.21875" y1="37.8" x1="0" class="node-line-1"/></g><g transform="translate(56.109375, 5)" text-anchor="middle" dominant-baseline="middle" alignment-baseline="middle" dy="1em"><g><rect style="stroke: none" class="background"/><text style="" y="-10.1"><tspan dy="1.1em" y="-0.1em" x="0" class="text-outer-tspan"><tspan font-weight="normal" class="text-inner-tspan" font-style="normal">Live</tspan><tspan font-weight="normal" class="text-inner-tspan" font-style="normal"> Updates</tspan></tspan></text></g></g></g><g transform="translate(270.4589542761368, 47.541573285818124)" class="mindmap-node section-1"><g><path d="M0 32.8 v-27.799999999999997 q0,-5 5,-5 h107.203125 q5,0 5,5 v32.8 H0 Z" class="node-bkg node-no-border" id="node-30"/><line y2="37.8" x2="117.203125" y1="37.8" x1="0" class="node-line-1"/></g><g transform="translate(58.6015625, 5)" text-anchor="middle" dominant-baseline="middle" alignment-baseline="middle" dy="1em"><g><rect style="stroke: none" class="background"/><text style="" y="-10.1"><tspan dy="1.1em" y="-0.1em" x="0" class="text-outer-tspan"><tspan font-weight="normal" class="text-inner-tspan" font-style="normal">Bi-directional</tspan></tspan></text></g></g></g><g transform="translate(248.41897035311837, 124.52964725072422)" class="mindmap-node section-1"><g><path d="M0 32.8 v-27.799999999999997 q0,-5 5,-5 h112.1875 q5,0 5,5 v32.8 H0 Z" class="node-bkg node-no-border" id="node-31"/><line y2="37.8" x2="122.1875" y1="37.8" x1="0" class="node-line-1"/></g><g transform="translate(61.09375, 5)" text-anchor="middle" dominant-baseline="middle" alignment-baseline="middle" dy="1em"><g><rect style="stroke: none" class="background"/><text style="" y="-10.1"><tspan dy="1.1em" y="-0.1em" x="0" class="text-outer-tspan"><tspan font-weight="normal" class="text-inner-tspan" font-style="normal">Event</tspan><tspan font-weight="normal" class="text-inner-tspan" font-style="normal"> Streams</tspan></tspan></text></g></g></g><g transform="translate(414.51683944613086, 15)" class="mindmap-node section-1"><g><path d="M0 32.8 v-27.799999999999997 q0,-5 5,-5 h104.15625 q5,0 5,5 v32.8 H0 Z" class="node-bkg node-no-border" id="node-32"/><line y2="37.8" x2="114.15625" y1="37.8" x1="0" class="node-line-1"/></g><g transform="translate(57.078125, 5)" text-anchor="middle" dominant-baseline="middle" alignment-baseline="middle" dy="1em"><g><rect style="stroke: none" class="background"/><text style="" y="-10.1"><tspan dy="1.1em" y="-0.1em" x="0" class="text-outer-tspan"><tspan font-weight="normal" class="text-inner-tspan" font-style="normal">Subscriptions</tspan></tspan></text></g></g></g><g transform="translate(535.6086155175808, 124.86895619425798)" class="mindmap-node section-1"><g><path d="M0 32.8 v-27.799999999999997 q0,-5 5,-5 h75.59375 q5,0 5,5 v32.8 H0 Z" class="node-bkg node-no-border" id="node-34"/><line y2="37.8" x2="85.59375" y1="37.8" x1="0" class="node-line-1"/></g><g transform="translate(42.796875, 5)" text-anchor="middle" dominant-baseline="middle" alignment-baseline="middle" dy="1em"><g><rect style="stroke: none" class="background"/><text style="" y="-10.1"><tspan dy="1.1em" y="-0.1em" x="0" class="text-outer-tspan"><tspan font-weight="normal" class="text-inner-tspan" font-style="normal">AI</tspan><tspan font-weight="normal" class="text-inner-tspan" font-style="normal"> Agents</tspan></tspan></text></g></g></g><g transform="translate(750.161261069052, 237.06849175870104)" class="mindmap-node section-1"><g><path d="M0 32.8 v-27.799999999999997 q0,-5 5,-5 h96.5 q5,0 5,5 v32.8 H0 Z" class="node-bkg node-no-border" id="node-35"/><line y2="37.8" x2="106.5" y1="37.8" x1="0" class="node-line-1"/></g><g transform="translate(53.25, 5)" text-anchor="middle" dominant-baseline="middle" alignment-baseline="middle" dy="1em"><g><rect style="stroke: none" class="background"/><text style="" y="-10.1"><tspan dy="1.1em" y="-0.1em" x="0" class="text-outer-tspan"><tspan font-weight="normal" class="text-inner-tspan" font-style="normal">Claude/GPT</tspan></tspan></text></g></g></g><g transform="translate(662.4511255545322, 109.31323931785334)" class="mindmap-node section-1"><g><path d="M0 32.8 v-27.799999999999997 q0,-5 5,-5 h81 q5,0 5,5 v32.8 H0 Z" class="node-bkg node-no-border" id="node-36"/><line y2="37.8" x2="91" y1="37.8" x1="0" class="node-line-1"/></g><g transform="translate(45.5, 5)" text-anchor="middle" dominant-baseline="middle" alignment-baseline="middle" dy="1em"><g><rect style="stroke: none" class="background"/><text style="" y="-10.1"><tspan dy="1.1em" y="-0.1em" x="0" class="text-outer-tspan"><tspan font-weight="normal" class="text-inner-tspan" font-style="normal">Webhooks</tspan></tspan></text></g></g></g><g transform="translate(764.1811062837746, 158.20637093764446)" class="mindmap-node section-1"><g><path d="M0 32.8 v-27.799999999999997 q0,-5 5,-5 h125.25 q5,0 5,5 v32.8 H0 Z" class="node-bkg node-no-border" id="node-37"/><line y2="37.8" x2="135.25" y1="37.8" x1="0" class="node-line-1"/></g><g transform="translate(67.625, 5)" text-anchor="middle" dominant-baseline="middle" alignment-baseline="middle" dy="1em"><g><rect style="stroke: none" class="background"/><text style="" y="-10.1"><tspan dy="1.1em" y="-0.1em" x="0" class="text-outer-tspan"><tspan font-weight="normal" class="text-inner-tspan" font-style="normal">Message</tspan><tspan font-weight="normal" class="text-inner-tspan" font-style="normal"> Queues</tspan></tspan></text></g></g></g></g></svg>